<svg width="16" height="16" viewBox="0 0 16 16" fill="none" xmlns="http://www.w3.org/2000/svg">
<path opacity="0.7" d="M8.02052 3.18483C9.15726 3.16558 10.2557 3.59543 11.0775 4.38107L13.3708 2.08774C11.924 0.727481 10.0063 -0.0191375 8.02052 0.0047163C6.53801 0.00446689 5.08461 0.416363 3.82267 1.1944C2.56072 1.97244 1.53992 3.08598 0.874268 4.41065L3.54582 6.48168C3.85306 5.53313 4.45007 4.70483 5.25279 4.1134C6.05552 3.52197 7.02353 3.1972 8.02052 3.18483Z" fill="white"/>
<path d="M0.874321 4.41065C0.315127 5.52487 0.0239258 6.7543 0.0239258 8.00097C0.0239258 9.24764 0.315127 10.4771 0.874321 11.5913L3.54587 9.52026C3.21077 8.53512 3.21077 7.46683 3.54587 6.48168L0.874321 4.41065Z" fill="white"/>
<path opacity="0.6" d="M10.7282 12.0535C10.11 12.4503 9.40932 12.7007 8.67961 12.7856C7.9499 12.8705 7.21044 12.7876 6.51764 12.5432C5.82483 12.2989 5.19699 11.8995 4.68199 11.3756C4.167 10.8517 3.77845 10.2171 3.54599 9.52026L0.875244 11.5913C1.54077 12.9157 2.56133 14.0291 3.82296 14.8071C5.0846 15.5851 6.53766 15.9972 8.0199 15.9972C9.96638 16.0497 11.8594 15.3566 13.3118 14.0597L10.7282 12.0535Z" fill="white"/>
<path opacity="0.9" d="M15.5515 6.54725H8.02063V9.64021H12.3242C12.2351 10.1295 12.0478 10.5956 11.7734 11.0104C11.4991 11.4252 11.1435 11.78 10.7282 12.0535L13.3126 14.0605C14.0997 13.3027 14.7187 12.3878 15.1295 11.3753C15.5402 10.3629 15.7336 9.27533 15.697 8.18329C15.697 7.63315 15.6485 7.0878 15.5515 6.54725Z" fill="white"/>
</svg>
